<?xml version="1.0" standalone="no"?>
<!DOCTYPE svg PUBLIC "-//W3C//DTD SVG 20010904//EN"
 "http://www.w3.org/TR/2001/REC-SVG-20010904/DTD/svg10.dtd">
<svg version="1.0" xmlns="http://www.w3.org/2000/svg"
 width="846.000000pt" height="1432.000000pt" viewBox="0 0 846.000000 1432.000000"
 preserveAspectRatio="xMidYMid meet">
<metadata>
Created by potrace 1.16, written by Peter Selinger 2001-2019
</metadata>
<g transform="translate(0.000000,1432.000000) scale(0.100000,-0.100000)"
fill="#000000" stroke="none">
<path d="M3259 14134 c-23 -28 -17 -93 10 -115 28 -23 54 -24 86 -3 21 14 25
24 25 63 0 26 -5 52 -12 59 -18 18 -93 15 -109 -4z"/>
<path d="M3412 14078 c2 -57 6 -73 18 -73 9 0 16 11 18 28 4 34 22 31 40 -6
12 -25 40 -35 55 -21 3 4 -1 17 -10 31 -13 19 -14 29 -4 49 20 44 0 64 -65 64
l-55 0 3 -72z"/>
<path d="M3854 14137 c-3 -8 -4 -41 -2 -73 l3 -59 45 -3 c70 -5 83 11 73 83
l-8 60 -53 3 c-38 2 -54 -1 -58 -11z"/>
<path d="M4132 14078 l3 -73 34 -3 c50 -5 83 6 79 26 -2 13 -11 16 -36 14 -18
-2 -32 1 -32 7 0 6 11 11 24 11 25 0 51 22 39 33 -3 4 -19 7 -35 7 -15 0 -28
3 -28 8 0 4 15 7 32 7 23 0 34 5 36 18 3 15 -5 17 -58 17 l-61 0 3 -72z"/>
<path d="M7761 13860 c0 -66 3 -90 12 -87 7 2 12 17 12 33 l1 29 117 3 117 3
0 -66 0 -65 -40 0 c-22 0 -40 -4 -40 -10 0 -6 40 -10 100 -10 60 0 100 4 100
10 0 6 -22 10 -50 10 l-50 0 0 65 0 65 115 0 115 0 0 -125 c0 -92 -3 -127 -12
-130 -7 -2 -39 -6 -70 -10 -85 -9 -71 -25 22 -25 l80 0 0 200 c0 127 -4 200
-10 200 -5 0 -10 -16 -10 -35 l0 -35 -242 2 -242 3 -1 29 c0 16 -5 31 -12 33
-9 3 -12 -20 -12 -87z"/>
<path d="M2665 13918 c-3 -7 -4 -135 -3 -283 l3 -270 175 0 175 0 0 280 0 280
-173 3 c-133 2 -174 0 -177 -10z m333 -275 l-3 -258 -157 -3 -158 -3 0 261 0
260 160 0 160 0 -2 -257z"/>
<path d="M3295 13917 c-3 -7 -4 -134 -3 -282 l3 -270 173 -3 172 -2 0 285 0
285 -170 0 c-128 0 -172 -3 -175 -13z m325 -277 l0 -260 -155 0 -155 0 0 260
0 260 155 0 155 0 0 -260z"/>
<path d="M3904 13923 c-29 -6 -32 -39 -31 -323 l2 -235 175 0 175 0 0 280 0
280 -150 1 c-82 1 -160 0 -171 -3z m304 -280 l-3 -258 -155 0 -155 0 -3 258
-2 257 160 0 160 0 -2 -257z"/>
<path d="M4477 13923 c-4 -3 -7 -132 -7 -285 l0 -278 178 2 177 3 3 283 2 282
-173 0 c-96 0 -177 -3 -180 -7z m295 -21 l38 -2 -3 -257 -2 -258 -157 -3 -158
-3 0 264 0 263 123 -1 c67 -1 139 -2 159 -3z"/>
<path d="M7767 13463 c-11 -10 -8 -171 2 -178 6 -3 11 12 13 32 l3 38 240 0
240 0 3 -32 c2 -18 7 -33 13 -33 12 0 12 167 -1 175 -6 4 -10 -8 -10 -29 l0
-36 -246 0 -246 0 4 24 c5 27 -4 51 -15 39z"/>
<path d="M7760 13110 c0 -53 4 -90 10 -90 6 0 10 16 10 35 l0 36 118 -3 117
-3 3 -56 c4 -80 -16 -102 -126 -135 -112 -33 -132 -46 -132 -84 0 -23 7 -33
30 -45 16 -8 36 -15 45 -15 22 0 18 21 -5 27 -48 13 5 58 120 103 19 7 42 20
52 27 14 13 17 11 23 -19 20 -90 99 -130 193 -97 54 19 66 61 70 247 3 106 0
162 -7 162 -5 0 -11 -14 -13 -30 l-3 -31 -240 0 -240 0 -3 31 c-2 16 -7 30
-13 30 -5 0 -9 -40 -9 -90z m510 -112 c0 -100 -16 -144 -61 -168 -35 -19 -107
-6 -138 24 -24 25 -26 34 -29 131 l-4 105 116 0 116 0 0 -92z"/>
<path d="M7765 12670 c-4 -6 7 -15 25 -21 31 -11 31 -12 12 -33 -57 -64 -53
-206 8 -271 20 -21 32 -25 85 -25 92 0 120 32 180 205 29 85 55 120 95 130 34
8 75 -35 91 -97 27 -100 -39 -218 -121 -218 -11 0 -20 -4 -20 -10 0 -6 33 -10
80 -10 78 0 105 12 55 24 -28 7 -32 21 -11 33 18 10 46 88 46 127 0 80 -58
176 -107 176 -13 0 -42 -9 -63 -20 -42 -22 -74 -73 -99 -160 -18 -59 -41 -110
-65 -137 -15 -18 -30 -23 -67 -23 -40 0 -51 4 -73 30 -28 34 -41 99 -31 157 8
49 60 108 103 118 18 4 31 12 29 18 -5 16 -143 22 -152 7z"/>
<path d="M42 12583 c-3 -10 -7 -556 -7 -1213 l0 -1195 43 -3 42 -3 0 -97 0
-98 -45 3 -45 3 -2 -783 c-7 -2106 -7 -4915 0 -4942 l8 -30 232 -3 232 -2 0
-69 c0 -68 0 -69 -36 -90 -19 -12 -32 -26 -29 -32 5 -7 15 -3 29 10 30 29 36
27 36 -13 0 -31 2 -34 41 -40 23 -4 81 -4 130 0 l89 7 0 113 0 114 245 0 245
0 0 919 c0 506 -4 922 -8 925 -5 3 -48 6 -95 8 l-87 3 0 57 0 58 575 0 575 0
2 -2013 3 -2012 608 -3 607 -3 0 1841 0 1840 234 0 233 0 1 -182 c0 -101 5
-205 11 -233 6 -27 15 -73 20 -101 23 -128 112 -339 210 -499 50 -81 158 -205
258 -295 64 -58 77 -68 146 -114 31 -21 59 -41 62 -45 2 -5 -9 -26 -24 -47
-128 -175 -186 -407 -150 -609 5 -33 12 -69 13 -80 2 -11 9 -33 15 -48 17 -42
13 -72 -10 -93 -12 -10 -44 -45 -71 -77 -48 -55 -50 -59 -32 -72 19 -13 19
-14 -1 -37 -41 -45 -107 -149 -100 -156 8 -8 31 20 87 106 41 62 51 71 63 52
15 -24 27 -5 80 123 18 44 28 46 44 10 26 -58 104 -162 164 -219 91 -86 281
-192 377 -209 14 -2 49 -9 79 -15 77 -15 217 -12 281 5 103 28 98 30 169 -95
51 -89 47 -86 66 -70 16 13 21 11 49 -25 55 -70 114 -130 122 -123 3 4 -25 44
-65 89 -65 75 -70 84 -56 99 14 16 12 21 -27 56 -24 22 -60 52 -80 68 -21 16
-38 31 -38 35 0 4 15 12 34 19 55 20 198 111 243 155 24 22 44 39 47 36 10
-10 83 -136 89 -153 6 -15 10 -17 19 -8 22 22 37 12 99 -68 34 -44 66 -80 71
-80 17 0 7 27 -17 50 -14 14 -44 48 -67 77 -35 46 -39 55 -27 69 12 15 5 25
-60 85 l-74 68 50 83 c27 46 58 102 68 126 10 23 21 42 24 42 7 0 51 -65 68
-100 24 -50 30 -55 48 -40 19 16 27 8 110 -98 37 -48 55 -63 55 -44 0 4 -27
41 -60 82 -55 70 -74 110 -50 110 24 0 5 23 -71 82 -78 61 -80 64 -75 98 28
177 30 201 17 287 -14 103 -54 242 -86 298 -56 102 -120 188 -171 232 -137
119 -273 187 -433 217 -182 35 -356 7 -535 -84 l-74 -38 -49 23 c-92 42 -231
145 -322 238 -217 221 -330 505 -331 830 l0 117 1470 0 1470 0 0 -772 c0 -886
3 -1108 13 -1125 10 -16 837 -19 853 -4 5 6 7 645 4 1718 l-5 1707 -105 0
c-58 -1 -252 -1 -432 -2 l-328 -2 0 -405 0 -404 -336 -3 c-185 -2 -338 -1
-340 1 -2 2 -4 186 -4 408 l0 403 -302 2 -303 3 -3 163 -2 162 70 0 70 0 0
105 0 104 -67 3 -68 3 -2 855 -2 855 -62 3 c-50 2 -60 6 -55 18 3 9 6 213 6
455 l0 439 210 0 210 0 -2 253 -3 252 -73 0 -72 0 0 388 0 387 75 0 75 0 0
323 c0 178 -2 326 -4 328 -2 2 -115 3 -249 1 l-245 -3 1 -72 1 -72 -512 -3
-511 -2 -3 77 -3 78 -50 -1 c-27 -1 -159 -2 -292 -3 l-243 -1 0 -325 0 -325
71 0 70 0 -2 -295 -2 -295 -344 0 -343 0 0 735 0 735 -1675 0 c-1587 0 -1676
-1 -1683 -17z m2378 -238 l0 -235 -172 -2 -173 -3 -5 -255 -5 -255 -487 -2
-488 -2 0 490 0 489 523 2 c287 2 586 4 665 6 l142 2 0 -235z m958 -257 l-3
-493 -285 0 -285 0 3 235 c2 129 0 245 -3 257 -5 23 -7 23 -185 23 l-180 0 0
228 c0 126 3 232 7 235 3 4 215 7 470 7 l463 0 -2 -492z m-2408 97 c0 -250 4
-385 10 -385 6 0 10 135 10 385 l0 385 40 0 40 0 0 -460 0 -459 -82 -3 -83 -3
-3 -258 -2 -257 -208 2 -207 3 -2 255 -2 255 -188 2 c-103 1 -201 3 -217 3
l-28 0 5 323 c4 177 6 384 7 460 l0 137 455 0 455 0 0 -385z m3140 96 c0 -42
-4 -71 -11 -73 -6 -2 -12 -24 -13 -48 l-2 -45 -43 -3 c-57 -4 -77 3 -62 22 9
10 9 16 1 21 -8 5 -8 10 0 20 8 9 8 15 0 20 -11 7 -14 137 -3 148 3 4 35 7 70
7 l63 0 0 -69z m405 4 l0 -60 -62 -9 c-87 -12 -89 -11 -85 68 l4 67 71 -3 72
-3 0 -60z m1240 0 l0 -60 -77 -3 -78 -3 0 50 c0 27 -3 57 -6 66 -6 14 3 16 77
13 l84 -3 0 -60z m275 -2 l0 -68 -73 0 c-39 1 -72 5 -72 10 1 6 7 30 14 55 7
25 15 51 17 58 2 8 23 12 59 12 l55 0 0 -67z m-1312 -320 l2 -233 -75 0 c-68
0 -75 -2 -75 -20 0 -19 -7 -20 -230 -20 l-230 0 0 255 0 256 303 -3 302 -3 3
-232z m586 220 c-1 -7 -2 -112 -2 -233 l-2 -220 -280 0 -280 0 0 230 0 229
133 3 c298 6 432 3 431 -9z m133 -138 c1 -82 2 -192 3 -242 0 -86 1 -93 20
-93 18 0 20 -7 20 -60 l0 -60 -105 0 -105 0 -2 -472 -3 -473 -382 -3 c-331 -2
-383 -4 -383 -17 0 -10 -11 -15 -34 -15 -19 0 -41 -3 -50 -6 -12 -4 -16 0 -16
15 0 19 -6 21 -50 21 -28 0 -61 -6 -73 -13 -12 -8 -29 -13 -37 -12 -8 1 -23 3
-32 3 -16 2 -18 17 -18 167 l0 165 -40 0 -40 0 0 55 0 55 280 0 280 0 0 245 0
245 -40 0 -40 0 0 80 0 80 368 2 367 3 3 243 2 243 53 -3 52 -3 2 -150z m451
0 c2 -82 0 -219 -3 -302 l-7 -153 -189 0 -189 0 0 70 c0 63 -2 70 -20 70 -19
0 -20 7 -20 233 l0 233 213 0 212 -1 3 -150z m142 -70 l0 -225 -60 0 -60 0 0
225 0 225 60 0 60 0 0 -225z m-3250 -130 c0 -223 -1 -244 -17 -249 -10 -2
-165 -4 -345 -4 l-328 1 0 243 0 243 158 3 c86 2 241 4 345 5 l187 2 0 -244z
m1309 19 c-1 -107 -3 -125 -16 -120 -8 3 -35 6 -59 6 l-44 0 0 98 0 97 53 22
c28 11 55 21 59 22 4 1 7 -56 7 -125z m481 -264 l0 -70 40 0 40 0 0 -225 0
-225 -270 0 -270 0 0 295 0 295 230 0 230 0 0 -70z m-4105 -220 l0 -245 -47
-3 -48 -3 0 -225 0 -225 -157 3 -158 3 -3 459 c-1 272 2 463 7 470 6 7 74 11
208 11 l198 0 0 -245z m603 216 l4 -28 1151 3 1152 4 2 -92 1 -93 -234 0 -234
0 0 -147 c0 -82 -1 -353 -2 -603 l-3 -455 238 -3 237 -2 0 -30 c0 -17 5 -30
10 -30 6 0 10 14 10 30 l0 30 340 0 340 0 0 -115 0 -115 -340 0 c-330 0 -340
1 -340 19 0 11 -4 23 -10 26 -6 4 -10 -5 -10 -19 l0 -26 -237 -2 -238 -3 -3
-647 -2 -648 -23 -1 -22 -2 23 -4 22 -4 0 -1104 0 -1103 46 -3 c26 -2 295 -4
598 -4 l551 0 3 598 c2 589 2 597 22 597 25 0 26 16 2 22 -18 5 -19 47 -15
1164 2 638 4 1255 4 1372 l-1 212 85 0 85 0 0 -445 0 -445 490 0 c320 0 490 3
490 10 0 6 -7 10 -15 10 -13 0 -15 28 -15 190 l0 190 190 0 190 0 0 -190 c0
-185 -1 -190 -21 -190 -11 0 -17 -4 -14 -10 3 -5 40 -10 81 -10 l74 0 -2 -847
-3 -848 -172 -3 c-188 -3 -179 0 -174 -59 l2 -23 -548 -2 -548 -3 -3 -37 c-2
-25 -8 -38 -18 -38 -8 0 -14 -4 -14 -10 0 -5 7 -10 15 -10 12 0 15 -17 15 -95
0 -57 4 -95 10 -95 6 0 10 11 10 25 l0 25 115 0 c70 0 115 4 115 10 0 6 38 10
95 10 l95 0 0 -115 0 -115 -210 0 c-180 0 -210 2 -210 15 0 8 -4 15 -10 15 -6
0 -11 -145 -12 -392 -3 -435 -1 -508 12 -508 6 0 10 7 10 15 0 10 10 15 30 15
l30 0 0 -85 0 -85 -26 0 c-15 0 -33 8 -40 18 -13 16 -13 16 -14 0 0 -16 -11
-18 -94 -18 -52 0 -97 -4 -100 -8 -3 -4 -6 -188 -7 -408 -3 -433 -5 -412 57
-612 28 -88 93 -222 146 -298 52 -74 227 -252 293 -297 67 -47 86 -58 165 -97
l55 -27 -1 -92 -2 -91 32 -1 c17 -1 111 -1 208 -1 l178 1 2 -187 3 -187 153
-3 152 -3 0 -349 0 -349 -132 -3 -133 -3 -3 -113 -3 -113 -37 3 -37 3 -2 110
-1 110 -237 2 -238 2 -29 28 c-16 15 -49 57 -73 93 l-44 65 132 5 132 5 0 170
0 170 -184 3 -184 2 6 103 c9 155 44 260 133 393 30 44 54 85 54 92 0 6 -15
18 -34 27 -19 9 -82 55 -141 102 -278 223 -465 544 -526 903 -16 100 -20 158
-18 290 l3 165 -252 3 -252 2 0 195 0 195 -247 -2 -248 -3 -3 -812 c-2 -813
-2 -813 -23 -813 -11 0 -18 -4 -14 -10 3 -5 12 -7 20 -3 13 4 15 -117 16 -973
0 -539 3 -1052 5 -1141 l4 -163 -110 0 c-61 0 -110 1 -110 3 0 1 -3 512 -7
1134 l-6 1133 34 7 34 7 -30 6 -30 5 -3 1058 -2 1057 -460 0 c-300 0 -460 -3
-460 -10 0 -6 78 -10 215 -10 l215 0 0 -45 0 -45 -175 0 c-110 0 -175 4 -175
10 0 6 -4 10 -10 10 -6 0 -10 -82 -10 -225 l0 -226 -67 3 -68 3 -3 258 c-2
252 -2 257 18 257 11 0 20 5 20 10 0 7 -173 10 -500 10 l-500 0 -1 -257 c-2
-310 0 -289 -21 -285 -10 2 -18 -2 -18 -8 0 -5 9 -10 19 -10 19 0 19 -23 17
-972 l-1 -973 -150 0 -150 0 -3 147 -3 148 55 0 c30 0 61 3 70 6 14 6 16 88
16 825 0 735 2 819 16 819 8 0 12 5 9 10 -4 6 -11 8 -16 5 -5 -4 -9 718 -9
1879 l0 1886 -210 0 -210 0 0 100 0 100 93 0 c50 0 223 2 382 4 l290 5 2 713
c2 392 5 719 8 726 3 9 24 12 72 10 66 -3 68 -4 71 -32z m4812 -256 l0 -230
-295 0 -295 0 0 230 0 230 295 0 295 0 0 -230z m-2501 -555 l3 -585 -226 0
-226 0 0 585 0 585 223 0 222 0 4 -585z m-2481 -127 l2 -458 -113 0 -114 0 1
238 1 237 -142 3 -143 3 0 213 c0 162 3 216 13 219 6 3 120 4 252 4 l240 -2 3
-457z m3186 340 c-1 -57 -2 -259 -3 -450 l-1 -348 -340 0 -340 0 0 450 0 450
343 0 342 0 -1 -102z m1801 -80 c4 -95 5 -195 3 -223 l-3 -50 -297 -3 -298 -2
0 225 0 225 294 0 294 0 7 -172z m-1715 -179 l0 -188 53 -3 52 -3 3 -67 3 -68
-86 0 -85 0 0 259 c0 270 1 274 43 263 15 -4 17 -22 17 -193z m1858 39 l3
-138 -61 0 -60 0 0 141 0 141 58 -4 57 -3 3 -137z m-5368 -350 l0 -228 -305 0
-305 0 0 228 0 228 305 0 305 0 0 -228z m3723 172 c4 -17 14 -20 71 -20 59 0
66 2 66 20 0 20 7 20 545 20 l545 0 -2 -347 -3 -348 -187 -3 -188 -2 0 74 c0
49 -4 77 -12 82 -7 5 -215 8 -462 9 l-448 0 0 265 c1 146 1 266 2 268 0 1 15
2 34 2 25 0 35 -5 39 -20z m1372 -60 l0 -75 -60 0 -60 0 -3 78 -3 78 63 -3 63
-3 0 -75z m273 3 l-3 -78 -54 0 -54 0 -19 65 c-10 36 -18 71 -18 78 0 8 22 12
75 12 l76 0 -3 -77z m-821 -750 l-4 -268 -449 -3 -449 -2 0 270 0 270 453 0
452 0 -3 -267z m-5017 158 c3 -1 4 -21 2 -46 -5 -59 -32 -64 -32 -5 0 57 -17
50 -22 -9 -4 -70 2 -161 12 -161 5 0 10 21 12 47 4 63 28 71 28 9 0 -58 18
-70 22 -14 2 30 7 43 18 43 10 0 14 -9 13 -30 -3 -51 10 -63 16 -15 4 32 11
46 24 48 14 3 17 -4 17 -42 0 -25 5 -46 10 -46 6 0 10 20 10 45 0 33 4 45 14
45 10 0 16 -14 18 -42 4 -55 23 -51 23 5 0 31 4 42 15 42 11 0 15 -12 15 -44
0 -27 5 -46 13 -48 8 -3 12 10 12 46 0 27 5 53 11 57 7 4 8 9 1 13 -11 7 -20
107 -9 104 4 -2 30 -3 57 -3 l51 0 -3 -117 -3 -118 -242 -3 -243 -2 0 119 0
120 33 3 c26 2 85 2 107 -1z m3184 -124 l0 -98 -222 -2 -222 -2 0 103 0 102
223 -2 222 -3 -1 -98z m310 -114 c116 -120 253 -261 304 -313 l93 -95 -3 -72
-3 -72 -335 346 c-312 321 -335 348 -338 384 -3 39 -3 39 34 39 35 0 48 -11
248 -217z m57 120 c52 -54 149 -154 217 -223 l122 -126 0 -74 0 -75 -87 90
c-48 50 -176 182 -285 294 -109 111 -198 205 -198 207 0 2 31 4 69 4 l68 0 94
-97z m208 -35 l130 -133 0 -75 0 -75 -199 204 c-110 112 -200 205 -200 207 0
2 31 4 70 4 l69 0 130 -132z m89 87 c41 -44 42 -46 42 -117 l0 -73 -110 110
c-60 60 -110 113 -110 117 0 5 30 8 68 8 67 0 68 0 110 -45z m-105 -602 l147
-150 0 -79 0 -78 -142 150 c-78 82 -231 239 -340 349 l-198 201 0 73 0 73 193
-195 c105 -107 258 -262 340 -344z m-561 112 c-1 -165 -1 -302 -2 -305 0 -3
-100 -4 -222 -2 l-223 3 3 307 3 307 221 -5 222 -5 -2 -300z m-2837 0 l0 -300
-242 -3 -243 -2 0 298 c0 164 2 301 6 304 3 3 112 5 242 4 l237 -1 0 -300z
m3545 -515 l0 -75 -100 100 c-55 55 -100 93 -100 85 0 -9 45 -60 100 -115
l100 -100 0 -75 -1 -75 -95 98 c-52 53 -97 97 -100 97 -20 0 11 -41 96 -124
l100 -98 0 -74 0 -75 -91 96 c-50 52 -95 95 -100 95 -25 0 0 -34 91 -124 l100
-100 0 -71 0 -72 -92 93 c-50 52 -95 94 -100 94 -25 0 3 -38 92 -124 l100 -96
0 -72 0 -73 -100 100 c-55 55 -100 93 -100 85 0 -9 45 -60 100 -115 l100 -100
0 -75 0 -75 -100 100 c-55 55 -100 93 -100 85 0 -9 45 -60 100 -115 l100 -100
0 -75 -1 -75 -95 98 c-52 53 -97 97 -100 97 -17 0 9 -33 96 -122 l100 -103 0
-73 0 -73 -97 102 c-54 55 -99 96 -101 89 -3 -7 41 -58 97 -114 l101 -101 0
-75 0 -75 -110 110 c-60 60 -112 106 -115 103 -3 -3 46 -59 110 -124 l115
-118 0 -75 0 -74 -193 198 c-108 112 -198 196 -206 194 -7 -3 71 -90 194 -214
l206 -209 -3 -71 -3 -70 -337 341 -338 340 0 74 0 75 115 -115 c63 -63 119
-116 125 -118 27 -9 0 23 -115 138 l-125 125 0 74 0 73 120 -121 c65 -66 122
-116 125 -111 4 6 -50 68 -119 138 l-126 127 0 75 0 75 120 -124 c66 -68 123
-121 127 -117 6 6 -57 75 -189 210 l-58 59 0 75 0 76 116 -122 c104 -109 143
-142 132 -112 -1 5 -58 65 -125 133 l-123 124 0 74 0 74 125 -125 c69 -69 125
-118 125 -110 0 9 -56 71 -125 140 l-125 125 0 75 1 75 120 -123 c67 -68 123
-121 126 -118 7 6 -226 256 -238 256 -5 0 -9 37 -9 83 l0 82 119 -125 c66 -69
123 -121 127 -117 7 7 -199 227 -233 250 -9 5 -13 35 -13 88 l0 80 119 -123
c65 -68 123 -119 127 -115 4 4 -49 65 -119 135 l-127 127 0 75 0 75 116 -117
c64 -65 123 -118 132 -118 10 0 -40 56 -116 133 l-132 132 0 73 0 73 205 -208
c112 -114 207 -204 211 -200 9 9 -78 105 -261 287 l-155 155 0 75 0 74 340
-344 339 -345 1 -75z m-3540 -105 l0 -295 -245 0 -245 0 0 293 c0 162 2 296 4
298 2 2 113 3 245 1 l241 -3 0 -294z m2832 220 c2 -38 1 -171 -2 -295 l-5
-225 -220 0 -220 0 0 290 c0 160 1 292 2 295 0 3 100 5 222 5 l220 0 3 -70z
m-2834 -907 l-3 -373 -242 -3 -243 -2 0 375 0 375 245 0 245 0 -2 -372z m2832
70 l0 -298 -225 0 -225 0 0 293 c0 162 2 296 4 298 2 2 104 4 225 4 l221 0 0
-297z m0 -570 l0 -253 -222 2 -223 3 -3 250 -2 250 225 0 225 0 0 -252z m2110
62 l0 -140 -40 0 -40 0 0 133 c0 74 3 137 7 140 3 4 21 7 40 7 l33 0 0 -140z
m49 58 c41 -95 42 -97 75 -100 17 -2 31 -9 30 -15 -1 -7 -2 -37 -2 -67 l-2
-54 -65 -4 -64 -3 -3 148 c-2 81 0 147 3 147 3 0 16 -24 28 -52z m-1024 -113
l0 -100 -102 -3 -103 -3 0 106 0 106 103 -3 102 -3 0 -100z m663 -7 l-3 -113
-212 -3 -213 -2 2 107 c1 60 3 111 5 116 2 4 99 7 214 7 l210 0 -3 -112z
m-4636 -277 c-1 -206 -3 -376 -5 -377 -3 -3 -183 -6 -339 -5 l-138 1 0 380 0
380 243 -2 242 -3 -3 -374z m3548 -385 l0 -71 -340 340 -339 340 0 75 0 75
339 -344 340 -343 0 -72z m1646 506 c1 -95 4 -175 7 -178 3 -3 69 -5 146 -5
l141 2 0 -36 0 -35 -140 0 c-133 0 -141 -1 -148 -21 -7 -19 -16 -21 -103 -21
l-94 0 -1 64 -1 63 -172 3 -171 2 0 115 0 115 83 1 c45 1 87 0 92 -2 6 -1 33
-5 62 -7 44 -3 52 -7 55 -25 3 -21 9 -22 88 -22 l85 0 0 75 c0 66 2 76 20 82
49 16 50 14 51 -170z m-1678 -575 c31 -29 32 -33 32 -106 l-1 -76 -339 345
-340 345 0 73 0 73 308 -312 c169 -172 322 -326 340 -342z m1117 503 l0 -85
-210 0 -210 0 -3 88 -3 87 213 -2 213 -3 0 -85z m-1085 -790 l0 -75 -339 345
-340 345 0 75 0 75 339 -345 340 -345 0 -75z m-710 310 l0 -430 -225 0 -225 0
0 428 c0 236 2 431 4 433 2 2 104 3 225 1 l221 -3 0 -429z m1350 -30 l0 -400
-210 0 -210 0 0 400 0 400 210 0 210 0 0 -400z m115 290 l0 -110 -46 0 -47 0
-1 110 -2 110 48 0 48 0 0 -110z m115 0 l0 -110 -45 0 -45 0 0 110 0 110 45 0
45 0 0 -110z m562 28 c2 -46 2 -226 0 -400 l-3 -318 -269 0 -270 0 0 400 0
400 269 0 269 0 4 -82z m1689 -168 l0 -245 -65 -3 -66 -3 0 249 0 250 65 -2
65 -1 1 -245z m679 -52 l0 -303 -328 0 -327 0 -3 290 c-1 159 0 295 2 302 4
10 75 13 331 13 l325 0 0 -302z m-3837 -436 c55 -52 50 -62 -33 -62 -49 0 -71
4 -77 14 -4 8 -126 134 -270 280 l-263 266 0 74 0 74 303 -306 c166 -167 319
-320 340 -340z m1977 598 l5 -45 153 -3 152 -3 0 -304 0 -305 -290 0 -290 0 0
354 0 354 133 -2 132 -2 5 -44z m-292 -367 l2 -293 -100 0 -100 0 0 295 0 296
98 -3 97 -3 3 -292z m-778 -13 l0 -280 -105 0 -105 0 0 273 c0 151 3 277 7
280 3 4 51 7 105 7 l98 0 0 -280z m-1040 -272 c0 -5 -29 -8 -64 -8 l-63 0
-191 193 -192 192 0 75 0 75 255 -260 c140 -143 255 -263 255 -267z m-3380
442 c0 -109 1 -734 1 -780 l-1 -65 -240 0 -240 0 0 425 0 425 240 0 c132 0
240 -2 240 -5z m3050 -275 l174 -175 -76 0 -76 0 -60 63 c-151 157 -142 143
-142 219 0 37 1 68 3 68 1 0 81 -79 177 -175z m-2643 -157 l2 -258 -90 0 -89
0 0 260 0 261 88 -3 87 -3 2 -257z m743 2 l0 -260 -360 0 -360 0 0 260 0 260
360 0 360 0 0 -260z m1008 128 l-3 -133 -224 0 -223 0 -4 133 -3 132 230 0
230 0 -3 -132z m4512 95 c0 -21 1 -496 2 -1056 l3 -1017 -67 0 -68 0 -2 818
c-2 645 -6 817 -15 818 -7 1 -168 2 -357 3 l-345 1 -4 23 -4 22 -8 -22 c-7
-20 -38 -37 -49 -25 -3 3 -6 43 -6 89 0 82 0 83 25 83 18 0 25 -5 25 -19 0
-11 5 -23 10 -26 6 -3 10 3 10 14 0 20 5 21 358 23 l357 3 3 153 3 152 64 0
65 0 0 -37z m680 -125 l0 -63 -328 0 -327 0 -3 49 c-2 27 -1 55 2 62 4 12 64
14 331 14 l325 0 0 -62z m0 -493 l0 -405 -327 2 -328 3 -3 403 -2 402 330 0
330 0 0 -405z m-5202 362 c9 -6 12 -79 12 -308 l0 -299 -230 0 -231 0 2 303
c1 166 3 304 4 307 5 8 429 5 443 -3z m2252 -42 l0 -35 -222 0 c-123 0 -247
-3 -275 -6 l-53 -7 0 41 0 40 275 1 275 1 0 -35z m852 -12 l3 -48 198 -3 197
-2 0 -35 0 -35 -860 0 -860 0 0 35 0 35 243 2 242 3 3 48 3 47 414 0 414 0 3
-47z m478 10 l0 -38 -230 0 -230 0 0 38 0 37 230 0 230 0 0 -37z m-4050 -133
l0 -50 -172 2 -173 3 -3 42 -3 43 173 3 c95 1 174 4 176 5 1 1 2 -21 2 -48z
m1190 -100 l0 -80 -227 2 -228 3 -3 64 c-2 35 -1 70 2 77 4 11 50 14 231 14
l225 0 0 -80z m938 -152 l2 -228 -120 0 -120 0 0 223 c0 123 3 227 7 231 4 3
57 5 117 4 l111 -3 3 -227z m620 0 l2 -228 -300 0 -300 0 0 230 0 230 298 -2
297 -3 3 -227z m590 0 l2 -228 -285 0 -285 0 0 230 0 230 283 -2 282 -3 3
-227z m352 2 l0 -230 -165 0 -165 0 0 230 0 230 165 0 165 0 0 -230z m431 0
l0 -225 -206 -3 -205 -2 0 230 0 230 205 -2 206 -3 0 -225z m711 0 l3 -230
-342 0 -342 0 -3 226 c-2 124 -1 228 1 230 2 2 156 4 342 4 l338 0 3 -230z
m-6012 120 l0 -60 -70 0 c-38 0 -70 -4 -70 -8 0 -9 171 -22 283 -22 l57 0 0
-450 0 -450 -235 0 -235 0 0 455 0 455 26 0 c14 0 23 4 19 10 -3 6 -15 10 -26
10 -17 0 -19 7 -19 60 l0 60 135 0 135 0 0 -60z m2370 -530 l0 -460 -230 0
-230 0 0 460 0 460 230 0 230 0 0 -460z m-2870 335 l0 -95 -240 0 -240 0 0 95
0 95 240 0 240 0 0 -95z m0 -155 c3 -25 4 -154 2 -287 l-3 -243 -239 0 -240 0
0 288 0 287 237 0 238 0 5 -45z m2160 -250 l0 -280 -230 0 -230 0 0 280 0 280
230 0 230 0 0 -280z m5190 -330 l0 -450 -330 0 -329 0 -1 450 0 450 330 0 330
0 0 -450z m-7350 -32 c1 -35 2 -186 4 -335 l2 -273 -243 0 -243 0 0 335 0 335
240 0 240 0 0 -62z m2155 -233 l0 -290 -222 0 -223 0 -5 283 c-3 156 -2 288 1
293 3 5 99 8 227 7 l222 -3 0 -290z m-1460 -255 l0 -435 -230 0 -230 0 -3 438
-2 437 232 -2 233 -3 0 -435z m2175 -186 c0 -567 -1 -626 -16 -620 -9 3 -56 6
-105 6 l-89 0 -2 268 -3 267 -122 3 -123 3 0 343 c0 188 3 345 6 349 3 3 107
6 230 6 l224 0 0 -625z m4155 178 l1 -52 -166 2 -165 3 -3 39 c-6 68 -10 67
170 64 l163 -3 0 -53z m325 -169 c1 -126 2 -317 3 -426 l2 -199 -407 -5 -408
-6 0 364 0 364 272 0 c208 0 272 3 276 13 2 7 -5 12 -17 12 -19 0 -21 6 -21
55 l0 55 150 0 150 0 0 -227z m-2420 123 c30 -7 87 -27 125 -44 l70 -31 3
-140 3 -141 -214 0 -214 0 -1 30 c-1 41 -9 50 -43 50 l-29 0 0 144 c0 142 0
145 23 150 36 8 216 -4 277 -18z m-322 -59 l3 -67 -81 0 -80 0 0 50 0 49 63
20 c89 29 91 28 95 -52z m-2448 -227 l0 -280 -225 0 -224 0 -3 276 c-2 152 -2
277 0 279 2 2 104 4 228 4 l224 1 0 -280z m-2280 51 l0 -150 -180 0 -180 0 0
150 0 149 180 0 180 0 0 -149z m5355 83 c70 -52 175 -168 175 -193 0 -8 -37
-11 -127 -9 l-128 3 -3 128 c-1 70 0 127 3 127 4 0 40 -25 80 -56z m-715 -19
c0 -14 5 -25 10 -25 6 0 10 12 10 26 0 21 4 25 23 22 18 -2 23 -10 25 -45 2
-24 7 -43 13 -43 5 0 9 -9 9 -20 0 -18 -7 -20 -80 -20 l-80 0 0 65 0 65 35 0
c31 0 35 -3 35 -25z m-1884 -317 l2 -257 -107 -3 c-58 -2 -109 -2 -113 0 -9 3
-11 506 -2 515 4 3 54 5 113 4 l106 -2 1 -257z m2354 -28 l0 -141 -142 3 -143
3 -1 138 0 137 143 0 143 0 0 -140z m470 85 c56 -111 80 -212 80 -333 l0 -82
-262 2 -263 3 -3 233 -2 232 212 -2 213 -3 25 -50z m-5250 -80 l0 -105 -100 0
c-55 0 -103 0 -107 0 -5 0 -9 11 -11 26 -4 27 22 64 45 64 7 0 13 5 13 10 0
14 -33 13 -48 -2 -9 -9 -12 2 -12 50 l0 62 110 0 110 0 0 -105z m1945 -385 l0
-305 -222 -3 -223 -2 0 310 0 310 223 -2 222 -3 0 -305z m717 -142 c2 -145 2
-282 0 -305 l-3 -43 -224 0 -224 0 -3 305 -3 305 227 0 227 0 3 -262z m1389
120 c0 -35 1 -103 2 -153 l1 -90 -132 -3 c-130 -3 -133 -2 -141 20 -6 15 -4
35 6 58 26 60 25 66 -1 38 -14 -16 -28 -23 -31 -18 -11 18 -33 105 -40 158
l-7 52 171 0 171 0 1 -62z m1279 25 c0 -16 -5 -45 -11 -67 l-11 -38 -29 28
c-36 34 -38 20 -4 -30 31 -46 26 -91 -9 -82 -11 3 -121 6 -243 6 l-221 0 -1
105 -1 105 265 0 265 0 0 -27z m-79 -266 c-43 -85 -85 -146 -102 -147 -9 0
-24 9 -34 20 -28 31 -37 24 -15 -12 24 -40 25 -64 4 -72 -9 -3 -81 -6 -160 -6
l-145 0 2 133 c2 72 3 134 5 137 1 3 108 4 237 2 l234 -3 -26 -52z m-3301
-362 l0 -295 -225 0 -225 0 0 295 0 295 225 0 225 0 0 -295z m2460 20 c0 -92
-1 -95 -22 -95 -34 0 -142 36 -214 71 -64 30 -184 108 -184 118 0 3 94 5 210
3 l210 -3 0 -94z m650 94 c0 -12 -112 -82 -205 -128 l-60 -29 -27 26 c-22 20
-28 22 -28 9 0 -8 5 -19 10 -22 32 -20 -26 -41 -142 -51 l-78 -7 0 100 c0 55
2 102 4 104 7 7 526 4 526 -2z m-2395 -361 l4 -358 -230 0 -229 0 0 360 0 360
226 -2 225 -3 4 -357z m-717 -370 l-3 -303 -222 -3 -223 -2 0 305 0 305 225 0
225 0 -2 -302z m717 -158 l0 -145 -227 -3 -228 -2 0 150 0 150 228 -2 227 -3
0 -145z m-475 -80 l0 -71 -107 3 -108 3 -3 68 -3 67 111 0 110 0 0 -70z"/>
<path d="M4328 12021 c-14 -20 -16 -71 -3 -91 9 -15 44 -18 68 -5 17 8 29 9
35 3 5 -5 20 -8 33 -6 26 3 36 39 24 85 -5 20 -12 24 -43 23 -20 0 -51 2 -68
6 -25 5 -35 2 -46 -15z"/>
<path d="M4956 12027 c-26 -19 -26 -85 -1 -103 22 -16 61 -18 70 -4 3 5 20 7
36 3 36 -7 49 7 49 52 0 43 -12 56 -51 53 -19 -1 -45 2 -59 6 -16 4 -32 2 -44
-7z"/>
<path d="M4815 11508 c-3 -7 -4 -173 -3 -368 l3 -355 155 0 155 0 0 365 0 365
-153 3 c-117 2 -154 0 -157 -10z m295 -83 l0 -75 -135 0 -135 0 0 75 0 75 135
0 135 0 0 -75z m0 -220 l0 -125 -137 0 -138 0 3 125 3 125 135 0 134 0 0 -125z
m-2 -279 l3 -126 -142 0 -141 0 6 128 c2 70 5 127 5 127 1 0 61 -1 133 -2
l133 -2 3 -125z"/>
<path d="M5580 11941 c-25 -47 -4 -101 40 -101 16 0 31 4 34 9 4 5 18 5 35 -2
40 -15 61 4 61 53 0 48 -21 67 -55 52 -15 -7 -26 -8 -30 -2 -11 19 -74 11 -85
-9z"/>
<path d="M4303 11460 c-19 -8 -23 -17 -23 -53 0 -24 5 -48 12 -55 13 -13 60
-16 72 -5 4 4 22 6 41 4 40 -3 58 21 49 68 -7 34 -33 48 -61 32 -13 -6 -24 -5
-38 5 -21 16 -22 16 -52 4z"/>
<path d="M1077 11383 c-4 -3 -7 -276 -7 -605 l0 -598 85 0 85 0 0 -105 0 -105
-245 0 -245 0 -2 -1487 c-2 -819 -1 -1500 1 -1515 l3 -27 147 -3 c80 -2 518
-2 973 0 l828 2 2 848 3 847 23 3 c12 2 22 8 22 14 0 5 -6 8 -14 5 -37 -14
-38 8 -32 585 3 310 5 647 6 749 0 178 1 187 20 192 20 5 20 14 20 606 l0 601
-833 0 c-459 0 -837 -3 -840 -7z m851 -299 l-3 -286 -418 -1 -417 -2 0 288 0
287 420 0 421 0 -3 -286z m802 1 c0 -157 -3 -285 -7 -285 -12 -1 -599 -1 -690
-1 l-83 1 0 285 0 285 390 0 390 0 0 -285z m-806 -600 l1 -285 -417 0 -418 0
0 288 0 287 416 -2 416 -2 2 -286z m806 6 l0 -291 -390 0 -390 0 0 288 0 287
390 3 390 3 0 -290z m-42 -468 l3 -153 -210 0 c-115 0 -216 -3 -225 -6 -14 -5
-16 12 -16 155 l0 161 223 -2 222 -3 3 -152z m-931 -310 l453 -458 0 -72 c0
-40 -3 -72 -7 -72 -5 1 -80 77 -168 169 -88 92 -166 170 -172 173 -36 18 3
-28 167 -195 l179 -183 1 -75 0 -75 -177 178 c-96 98 -178 175 -181 172 -7 -7
40 -58 220 -238 l138 -139 0 -76 -1 -77 -173 180 c-96 99 -178 176 -182 172
-7 -7 149 -171 304 -319 l52 -51 0 -76 0 -76 -175 175 c-96 96 -178 171 -182
167 -7 -8 48 -66 250 -265 l107 -106 0 -75 -1 -76 -174 178 c-97 97 -177 177
-180 177 -23 0 20 -50 175 -205 l180 -180 0 -75 0 -75 -177 180 c-109 111
-178 175 -181 166 -3 -8 71 -89 177 -195 l181 -181 0 -73 0 -73 -176 176 c-97
96 -178 175 -180 175 -22 0 23 -53 176 -205 l180 -179 0 -68 c0 -37 -3 -68 -7
-68 -4 0 -83 77 -176 171 -93 94 -171 168 -175 165 -6 -7 100 -121 249 -267
l109 -105 0 -75 0 -74 -225 225 c-123 123 -228 221 -232 216 -4 -4 97 -111
225 -238 l232 -231 0 -73 c0 -41 -1 -74 -3 -74 -1 0 -212 209 -467 465 l-465
465 -6 73 c-3 39 -4 75 -2 78 1 3 76 -68 165 -158 90 -89 170 -163 178 -163 8
0 -65 80 -162 178 l-176 177 -4 73 c-2 39 -1 72 3 72 4 0 22 -17 41 -37 84
-93 299 -296 305 -289 4 4 -72 85 -170 180 l-177 174 0 77 0 76 169 -170 c94
-94 172 -167 175 -163 3 5 -73 87 -169 183 l-174 174 -1 76 0 75 167 -168 c92
-92 171 -168 175 -168 23 0 -7 35 -167 194 l-175 175 0 73 0 73 168 -168 c92
-92 171 -167 175 -167 22 0 -9 36 -168 193 l-175 174 0 73 0 74 164 -164 c153
-153 194 -189 185 -162 -2 7 -82 89 -176 185 l-173 173 0 74 0 74 165 -165
c91 -90 170 -165 175 -167 28 -10 -6 29 -165 188 l-175 175 0 74 0 75 165
-165 c91 -90 170 -165 175 -167 28 -10 -5 28 -165 188 l-175 175 0 75 0 75
222 -222 c122 -122 226 -219 231 -216 5 3 -94 109 -222 236 l-231 230 0 58 c0
49 3 59 18 59 9 0 211 -196 469 -457z m87 90 l366 -368 0 -72 c0 -40 -2 -73
-5 -73 -3 0 -92 89 -198 197 -105 109 -302 307 -437 440 l-245 243 77 0 76 0
366 -367z m-18 195 c93 -95 217 -222 276 -282 l108 -108 0 -77 0 -76 -62 65
c-34 36 -192 197 -352 358 l-291 292 76 0 75 0 170 -172z m196 -20 l187 -193
0 -75 0 -75 -259 265 c-143 146 -260 266 -260 268 0 1 32 2 72 2 l72 0 188
-192z m86 91 l102 -100 0 -75 0 -75 -170 170 c-93 94 -170 173 -170 176 0 3
30 5 68 5 l67 0 103 -101z m-868 -599 l0 -480 -100 0 -99 0 -3 113 -3 112
-132 -2 -133 -1 0 369 0 369 235 0 235 0 0 -480z m1448 47 l2 -327 -225 0
-225 0 0 325 0 325 188 2 c103 2 203 3 222 3 l35 -1 3 -327z m-1668 -427 l0
-100 -125 0 -125 0 0 100 0 100 125 0 125 0 0 -100z m1665 -225 l0 -300 -223
-5 -222 -5 0 308 0 307 223 -2 222 -3 0 -300z m-1450 -286 l0 -384 -232 -3
-233 -2 0 385 0 385 223 2 c122 2 227 3 232 2 6 0 10 -136 10 -385z m1453
-349 l-3 -311 -223 -2 -222 -2 0 311 0 312 225 1 225 2 -2 -311z m-950 -282
c279 -278 472 -479 472 -490 0 -15 -8 -18 -55 -18 l-56 0 -414 417 -415 418 0
50 c0 27 -3 60 -6 73 -4 12 -5 22 -2 22 2 0 216 -212 476 -472z m-70 -101
c216 -217 392 -397 392 -400 0 -4 -31 -7 -68 -7 l-68 0 -330 330 -329 331 -1
69 c-1 39 1 70 5 70 4 0 183 -177 399 -393z m-436 324 c3 -1 6 -165 5 -366
l-2 -365 -232 0 -233 0 0 365 0 365 213 2 c116 2 219 2 227 1 8 -1 18 -2 22
-2z m648 -723 c0 -5 -30 -8 -68 -8 l-67 0 -241 243 -242 242 -1 75 -2 75 310
-310 c171 -170 311 -313 311 -317z m808 156 l-3 -279 -226 -3 -226 -2 1 282 1
283 220 5 c121 3 223 2 228 -1 4 -3 6 -131 5 -285z m-988 -156 c0 -5 -29 -8
-64 -8 l-64 0 -156 155 -156 156 0 71 0 72 220 -219 c121 -121 220 -223 220
-227z m-180 0 c0 -5 -30 -8 -67 -8 l-68 0 -62 66 -63 65 0 72 0 72 130 -130
c72 -71 130 -133 130 -137z m-570 -132 l0 -104 -90 -1 -90 -1 0 105 0 105 90
0 90 0 0 -104z m1260 -124 l0 -229 -144 -7 c-168 -8 -918 -7 -988 1 l-47 6 -3
126 -3 126 -25 0 c-25 0 -25 0 -26 103 l-1 102 618 0 619 0 0 -228z m480 -57
c0 -148 -2 -166 -17 -173 -10 -4 -112 -7 -228 -7 l-210 0 2 170 c1 94 2 171 2
173 1 1 102 2 226 2 l225 0 0 -165z m-1700 55 c13 0 15 -18 14 -117 l-1 -118
-117 -1 -116 -2 0 118 c0 69 4 120 10 122 5 2 51 2 102 1 51 -1 100 -3 108 -3z"/>
<path d="M1453 10402 c-19 -3 -23 -10 -23 -41 0 -21 6 -43 13 -49 16 -13 133
-10 147 4 6 6 10 29 8 50 l-3 39 -60 0 c-33 0 -70 -1 -82 -3z"/>
<path d="M2294 10403 c-14 -10 -11 -67 5 -86 15 -19 126 -20 142 -1 6 7 9 30
7 51 l-3 38 -70 3 c-38 1 -75 -1 -81 -5z"/>
<path d="M1671 9374 c-62 -52 -26 -114 64 -114 61 0 85 19 85 68 0 67 -91 95
-149 46z"/>
<path d="M1647 8273 c-14 -13 -7 -71 11 -93 12 -15 33 -24 64 -27 40 -5 50 -2
72 20 19 20 26 36 26 67 l0 40 -83 0 c-46 0 -87 -3 -90 -7z"/>
<path d="M2400 7522 c-27 -13 -36 -24 -38 -49 -3 -25 2 -35 24 -50 58 -37 144
-10 144 46 0 42 -6 46 -80 67 -8 2 -31 -4 -50 -14z"/>
<path d="M4287 9404 c-4 -4 -7 -364 -7 -801 l0 -793 75 0 75 0 2 393 c2 215 1
574 -2 797 l-5 405 -65 3 c-36 2 -69 0 -73 -4z m121 -796 l2 -778 -56 0 -56 0
4 780 3 781 50 -3 50 -3 3 -777z"/>
<path d="M5064 9379 c-32 -16 -49 -57 -45 -110 1 -17 37 -59 50 -59 17 0 20
44 4 62 -34 37 29 78 67 43 16 -15 17 -21 8 -39 -11 -19 -12 -55 -2 -65 2 -3
15 6 29 19 31 29 35 96 7 130 -20 25 -86 35 -118 19z"/>
<path d="M5020 9177 c0 -14 7 -30 15 -37 8 -7 15 -25 15 -41 0 -19 -5 -29 -15
-29 -11 0 -15 -11 -15 -36 0 -25 3 -33 12 -28 7 5 47 20 88 34 74 25 75 26 78
63 2 27 -1 37 -11 37 -8 0 -39 11 -68 24 -92 40 -99 41 -99 13z"/>
<path d="M5017 8968 c-8 -30 -1 -38 39 -38 32 0 34 -2 34 -35 0 -28 4 -35 20
-35 16 0 20 7 20 36 0 44 24 42 27 -2 0 -16 2 -34 2 -41 1 -6 9 -10 19 -9 14
2 18 15 20 74 l3 72 -89 0 c-84 0 -90 -1 -95 -22z"/>
<path d="M5043 8812 c-22 -3 -23 -8 -23 -77 0 -64 2 -73 18 -71 13 2 18 14 20
49 4 65 30 65 34 0 2 -35 7 -48 18 -48 10 0 17 14 20 45 6 55 25 51 25 -5 0
-33 3 -40 20 -40 18 0 20 8 23 78 l3 78 -68 -3 c-37 -2 -78 -4 -90 -6z"/>
<path d="M5148 8623 c-3 -27 -6 -28 -68 -33 -58 -4 -65 -7 -68 -27 -3 -21 1
-23 45 -23 71 0 93 -9 93 -35 0 -21 31 -41 44 -27 3 3 6 43 6 89 0 81 -1 83
-24 83 -19 0 -25 -6 -28 -27z"/>
<path d="M5019 8418 c0 -18 -1 -51 -2 -73 -2 -34 1 -40 21 -43 20 -3 22 0 22
47 0 38 4 51 14 51 11 0 16 -14 18 -47 2 -35 7 -48 18 -48 10 0 17 14 20 45 6
58 26 54 22 -5 -4 -43 -2 -45 22 -45 26 0 26 1 26 75 l0 75 -90 0 -90 0 -1
-32z"/>
<path d="M5018 8265 c-3 -3 -3 -17 0 -30 4 -21 10 -25 38 -25 43 0 43 -12 0
-35 -24 -13 -36 -27 -38 -47 -5 -34 17 -38 52 -10 23 18 24 18 42 0 22 -22 38
-23 63 -4 15 11 20 30 23 85 l4 71 -89 0 c-49 0 -92 -2 -95 -5z"/>
<path d="M5015 7969 c4 -13 12 -27 18 -31 6 -3 12 -22 14 -41 3 -28 -1 -36
-17 -40 -14 -3 -20 -13 -20 -31 0 -14 4 -26 10 -26 5 0 48 14 95 32 82 31 85
34 85 64 0 29 -4 32 -67 57 -38 14 -81 29 -97 33 -26 6 -28 5 -21 -17z"/>
<path d="M3570 6115 l0 -135 178 2 177 3 0 130 0 130 -177 3 -178 2 0 -135z
m170 105 c0 -6 -30 -10 -70 -10 -40 0 -70 -4 -70 -10 0 -6 30 -10 71 -10 61 0
70 -2 67 -17 -2 -14 -13 -16 -60 -14 -85 4 -97 -13 -13 -19 53 -4 70 -9 70
-20 0 -11 -17 -16 -70 -21 -66 -5 -67 -6 -20 -8 28 -2 59 -4 70 -5 11 0 20 -8
20 -16 0 -12 -15 -16 -67 -18 -90 -4 -88 -22 2 -22 56 0 70 -3 70 -15 0 -13
-13 -15 -77 -13 l-78 3 -3 113 -3 112 81 0 c47 0 80 -4 80 -10z m170 -105 l0
-116 -72 3 c-89 4 -96 22 -10 26 79 4 82 22 3 22 -33 0 -62 4 -65 9 -5 8 23
39 31 34 1 -2 27 -2 56 -1 l52 1 -65 6 c-49 5 -65 10 -65 21 0 11 14 16 58 18
76 4 73 20 -5 24 -35 2 -63 8 -63 13 0 6 28 11 63 13 79 4 81 22 2 22 -33 0
-60 4 -60 10 0 6 30 10 70 10 l70 0 0 -115z"/>
<path d="M4913 3994 c-3 -9 -2 -24 4 -33 7 -11 7 -21 0 -32 -8 -13 -6 -24 6
-43 24 -36 89 -37 113 -1 9 13 13 33 9 44 -5 16 -1 20 22 23 22 2 28 8 28 28
0 25 -2 25 -88 28 -74 2 -88 0 -94 -14z"/>
<path d="M4922 3713 c-5 -10 -8 -43 -7 -73 l3 -55 47 -3 c62 -4 85 16 85 72 0
50 -12 71 -34 63 -13 -5 -16 -15 -11 -44 l6 -38 -18 45 c-20 50 -54 65 -71 33z"/>
<path d="M4917 3554 c-4 -4 -7 -15 -7 -25 0 -12 12 -18 46 -24 36 -5 47 -11
55 -32 5 -14 8 -27 7 -28 -11 -8 -91 -35 -103 -35 -8 0 -15 9 -15 20 0 21 -24
28 -35 10 -4 -6 -4 -23 0 -39 5 -25 18 -33 91 -64 68 -28 86 -33 91 -21 9 24
-5 44 -37 50 -40 9 -38 22 5 30 l35 6 -2 77 -3 76 -60 3 c-34 2 -64 0 -68 -4z"/>
<path d="M5502 11378 c-14 -18 -17 -48 -9 -80 8 -31 49 -47 70 -29 7 6 29 8
48 5 32 -6 37 -3 48 23 16 40 0 83 -32 83 -13 0 -28 -5 -33 -10 -8 -8 -15 -6
-24 5 -15 18 -54 20 -68 3z"/>
<path d="M3547 10793 c-4 -3 -7 -62 -7 -129 l0 -123 43 -5 c23 -3 105 -5 182
-3 l140 2 3 133 3 132 -179 0 c-98 0 -182 -3 -185 -7z m343 -123 l0 -110 -75
0 c-43 0 -75 4 -75 10 0 6 28 10 65 10 83 0 85 18 3 22 -48 2 -63 7 -63 18 0
12 12 14 63 12 51 -3 62 -1 62 12 0 12 -14 16 -62 18 -35 2 -63 8 -63 13 0 6
28 11 63 13 34 2 62 7 62 12 0 5 -28 10 -62 12 -48 2 -63 7 -63 18 0 11 16 16
65 20 71 6 64 17 -15 23 -40 3 -35 4 23 5 l72 2 0 -110z m-175 60 c0 -12 -16
-16 -72 -18 -40 -2 -73 -7 -73 -12 0 -5 32 -10 72 -12 46 -2 73 -7 76 -15 3
-10 -15 -13 -67 -13 -38 0 -73 -4 -76 -10 -7 -12 2 -14 80 -14 46 -1 60 -4 60
-16 0 -12 -17 -16 -77 -18 l-78 -3 0 76 0 76 78 -3 c60 -2 77 -6 77 -18z"/>
<path d="M5500 10934 c-8 -8 -13 -28 -13 -44 0 -16 5 -36 13 -44 14 -18 65
-22 75 -6 4 7 13 6 26 -1 27 -14 47 -5 58 24 21 55 -14 101 -58 78 -13 -7 -22
-8 -26 -1 -10 16 -61 12 -75 -6z"/>
<path d="M5507 10785 c-26 -26 -26 -72 1 -92 19 -16 106 -17 133 -3 24 13 26
72 3 91 -25 21 -117 24 -137 4z"/>
<path d="M3723 8863 c-26 -5 -39 -20 -48 -55 -10 -41 31 -78 87 -78 58 0 88
22 88 63 0 41 -9 53 -43 66 -29 11 -44 12 -84 4z"/>
<path d="M3684 7911 c-12 -13 0 -21 31 -21 50 0 47 -29 -7 -66 -34 -22 -39
-29 -25 -32 11 -2 29 6 42 18 l24 22 13 -21 c9 -14 23 -21 45 -21 28 0 33 4
38 33 4 19 5 47 3 63 l-3 29 -78 0 c-43 0 -80 -2 -83 -4z"/>
<path d="M3673 7703 c6 -58 25 -73 89 -73 62 0 88 24 88 80 l0 40 -91 0 -92 0
6 -47z"/>
<path d="M273 7940 c-52 -21 -51 -90 3 -110 75 -29 149 11 136 73 -8 37 -87
58 -139 37z"/>
<path d="M240 7184 c-15 -39 -12 -62 11 -85 15 -15 27 -19 42 -14 12 5 41 7
64 6 48 -1 55 6 55 56 0 42 -16 55 -59 48 -17 -3 -34 -1 -38 5 -3 5 -20 10
-36 10 -22 0 -32 -6 -39 -26z"/>
<path d="M3000 7110 c-15 -27 -5 -56 23 -65 22 -7 22 -7 -3 -14 -32 -9 -32
-33 0 -41 36 -8 36 -33 0 -47 -40 -15 -39 -40 2 -51 46 -12 48 -32 3 -32 -62
0 -36 -25 29 -28 51 -3 57 -1 54 15 -2 11 -11 17 -22 15 -14 -3 -16 1 -11 17
5 16 1 23 -17 31 l-23 9 23 7 c20 6 22 12 18 52 -2 26 -9 48 -15 50 -9 3 -7
10 5 23 14 15 16 26 8 47 -12 35 -57 43 -74 12z"/>
<path d="M7487 6832 c-24 -26 -21 -68 5 -86 32 -23 110 -21 131 2 20 22 22 73
5 90 -20 20 -122 15 -141 -6z"/>
<path d="M1303 6396 c-47 -21 -60 -52 -36 -84 50 -67 185 -34 166 39 -12 45
-78 67 -130 45z"/>
<path d="M3072 5933 c-42 -17 -31 -103 13 -103 37 0 31 -18 -7 -22 -22 -2 -34
-9 -36 -21 -3 -14 2 -17 25 -15 20 2 28 -1 28 -12 0 -9 -11 -16 -27 -18 -28
-3 -36 -16 -19 -26 5 -3 25 -7 45 -8 50 -4 45 -23 -6 -23 -32 0 -43 -4 -43
-15 0 -11 14 -15 57 -17 l57 -1 -1 75 c-2 64 -5 77 -20 81 -23 6 -23 14 2 30
55 34 -6 120 -68 95z"/>
<path d="M283 4903 c-25 -5 -53 -39 -53 -63 0 -34 38 -60 88 -60 63 0 92 21
92 66 0 28 -5 36 -27 45 -36 14 -73 18 -100 12z"/>
<path d="M2404 4886 c-76 -33 -47 -116 41 -116 22 0 51 7 63 16 25 17 30 61
10 86 -18 23 -77 30 -114 14z"/>
<path d="M2418 4422 c-20 -4 -31 -45 -23 -82 6 -26 11 -28 56 -32 28 -1 59 0
70 4 23 9 37 42 31 75 -6 32 -69 49 -134 35z"/>
<path d="M2406 4265 c-16 -17 -20 -53 -10 -92 5 -17 14 -23 35 -23 15 0 30 4
33 9 3 5 24 7 45 4 37 -5 39 -4 45 24 4 16 2 41 -3 56 -9 23 -15 26 -53 24
-24 0 -50 2 -59 6 -10 5 -22 2 -33 -8z"/>
<path d="M79 4458 c-2 -108 2 -183 12 -192 5 -6 9 12 9 47 0 50 2 57 20 57 18
0 20 -7 20 -56 0 -34 4 -53 10 -49 6 3 10 28 10 56 0 37 4 49 15 49 12 0 15
-13 15 -55 0 -30 5 -55 10 -55 6 0 10 25 10 55 0 42 3 55 15 55 11 0 15 -12
15 -49 0 -28 5 -53 10 -56 6 -4 10 15 10 50 0 48 3 56 18 53 13 -2 18 -17 23
-58 l6 -55 1 56 c1 30 7 60 14 67 8 8 8 15 0 24 -6 8 -12 38 -15 68 l-3 55 -2
-57 c-3 -93 -42 -89 -42 5 0 26 -4 47 -10 47 -5 0 -10 -25 -10 -55 0 -42 -3
-55 -15 -55 -12 0 -15 13 -15 55 0 72 -18 72 -22 0 -4 -67 -22 -78 -26 -15 -4
72 -16 80 -22 15 -4 -46 -9 -61 -22 -63 -16 -3 -18 5 -18 57 0 81 -20 79 -21
-1z"/>
<path d="M3010 4197 c-30 -10 -35 -17 -38 -49 -2 -28 2 -40 20 -52 25 -18 84
-21 122 -6 23 8 26 15 26 54 0 44 -1 45 -37 55 -46 13 -49 13 -93 -2z"/>
<path d="M2393 3798 c-21 -27 -23 -51 -6 -79 16 -26 23 -29 68 -29 58 0 70 6
83 41 10 25 1 56 -22 71 -18 13 -113 9 -123 -4z"/>
<path d="M3103 3616 c-66 -29 -47 -100 29 -111 24 -4 55 -2 70 4 47 18 60 71
24 101 -22 17 -88 21 -123 6z"/>
<path d="M2397 3192 c-22 -24 -22 -76 0 -93 9 -8 37 -14 66 -13 39 0 54 5 69
23 24 31 23 47 -7 76 -31 32 -103 35 -128 7z"/>
<path d="M3120 2883 c-37 -7 -50 -22 -50 -58 0 -45 22 -60 91 -60 63 0 74 6
84 46 12 50 -51 86 -125 72z"/>
<path d="M2423 2575 c-28 -12 -33 -19 -33 -49 0 -47 22 -66 76 -66 66 0 84 13
84 61 0 33 -4 41 -25 49 -49 19 -70 20 -102 5z"/>
<path d="M3268 2464 c-5 -4 -8 -29 -8 -56 0 -28 -5 -48 -11 -48 -6 0 -10 15
-8 33 3 48 0 67 -11 67 -5 0 -10 -22 -10 -50 0 -27 -4 -50 -10 -50 -5 0 -10
23 -10 50 0 66 -18 64 -23 -2 l-3 -53 -2 53 c-3 66 -22 69 -22 2 0 -27 -4 -50
-10 -50 -5 0 -10 23 -10 50 0 28 -4 50 -10 50 -5 0 -10 -25 -10 -55 0 -30 -4
-55 -10 -55 -5 0 -10 26 -10 57 0 67 -9 67 -12 -1 -1 -26 -7 -54 -14 -61 -11
-11 -11 -15 2 -26 10 -8 14 -27 13 -60 -2 -27 0 -52 4 -56 4 -3 7 21 7 55 0
35 4 62 10 62 6 0 10 -27 10 -61 0 -37 4 -58 10 -54 6 3 10 31 10 61 0 34 4
53 10 49 6 -3 10 -31 10 -61 0 -75 18 -68 23 9 l3 62 2 -62 c2 -77 22 -84 22
-9 0 30 5 58 10 61 6 4 10 -16 10 -54 0 -33 4 -63 10 -66 14 -8 23 39 16 79
-4 20 -2 37 4 41 6 4 10 -17 10 -60 0 -42 4 -64 10 -60 6 3 10 32 10 64 0 32
5 62 12 69 10 10 10 15 1 20 -7 4 -13 34 -15 66 -2 32 -6 54 -10 50z"/>
<path d="M8120 12180 c0 -5 17 -10 38 -10 20 0 54 -5 75 -11 l38 -10 -3 -60
-3 -59 -242 -4 -243 -4 0 34 c0 19 -4 34 -10 34 -6 0 -10 -37 -10 -90 0 -53 4
-90 10 -90 6 0 10 17 10 38 l0 37 243 0 242 -1 0 -64 0 -64 -35 -7 c-19 -4
-52 -10 -72 -13 -69 -12 -41 -27 45 -24 l82 3 0 185 0 185 -82 3 c-53 2 -83
-1 -83 -8z"/>
<path d="M7760 11134 c0 -60 4 -94 9 -88 5 5 11 23 13 39 l3 30 114 0 115 0 0
-60 0 -60 -42 -3 c-23 -2 -42 -7 -42 -13 0 -5 44 -9 101 -9 76 0 100 3 96 13
-2 8 -19 11 -46 9 l-42 -3 3 63 3 63 99 1 c55 1 105 0 112 -3 8 -3 12 -41 12
-119 1 -131 2 -129 -92 -140 -84 -10 -67 -24 29 -24 l85 0 -2 198 c-2 122 -7
195 -13 192 -5 -3 -8 -17 -6 -32 l3 -28 -246 0 -246 0 0 29 c0 17 -4 33 -10
36 -6 4 -10 -29 -10 -91z"/>
<path d="M7759 10668 c-2 -198 -1 -277 5 -287 9 -13 156 -15 156 -2 0 12 -20
18 -87 26 l-53 7 0 111 0 112 242 -2 243 -2 -2 -31 c0 -20 3 -30 10 -27 15 5
17 167 2 167 -5 0 -10 -13 -10 -28 l0 -27 -242 -3 -243 -2 0 35 c0 19 -4 35
-10 35 -6 0 -10 -35 -11 -82z"/>
<path d="M7907 10297 c-83 -29 -122 -66 -139 -129 -22 -86 17 -174 97 -216 41
-21 146 -42 181 -36 154 28 201 58 230 151 16 50 16 57 1 103 -30 93 -100 136
-237 146 -52 4 -79 0 -133 -19z m187 -32 c91 -21 111 -32 142 -76 22 -33 26
-46 21 -85 -10 -91 -96 -140 -247 -138 -99 1 -147 20 -200 80 -29 33 -32 42
-27 83 5 45 19 62 84 108 21 14 108 39 145 42 9 1 46 -6 82 -14z"/>
<path d="M7896 9766 c-77 -32 -110 -66 -130 -130 -16 -50 -16 -56 0 -97 48
-124 193 -178 361 -134 155 40 207 201 101 313 -42 44 -96 63 -203 68 -58 4
-81 0 -129 -20z m220 -36 c108 -27 139 -58 139 -139 0 -68 -17 -94 -80 -122
-76 -33 -157 -44 -222 -29 -69 16 -99 30 -135 65 -50 47 -49 121 1 169 33 31
140 75 187 75 17 1 67 -8 110 -19z"/>
<path d="M7757 9253 c-2 -5 -5 -45 -5 -90 -1 -66 2 -83 14 -83 9 0 14 11 14
33 l0 32 115 2 115 2 0 -69 c0 -70 0 -70 -37 -93 -21 -13 -51 -27 -68 -31
-129 -30 -134 -32 -146 -64 -11 -28 11 -72 35 -72 8 0 21 -3 30 -6 11 -4 16
-1 16 10 0 11 -7 16 -17 14 -12 -2 -18 3 -18 17 0 21 49 51 117 74 20 7 48 21
61 31 l25 20 20 -50 c55 -133 218 -118 251 22 15 63 11 303 -4 303 -5 0 -11
-13 -13 -30 l-3 -30 -239 0 -240 0 0 33 c0 29 -13 43 -23 25z m501 -214 c-3
-102 -5 -112 -27 -130 -23 -19 -109 -27 -146 -13 -33 13 -55 78 -55 162 0 43
3 82 7 85 3 4 55 7 116 7 l109 0 -4 -111z"/>
<path d="M3658 5775 c-3 -5 -9 -35 -12 -65 -7 -58 -23 -176 -31 -222 -4 -23
-1 -28 15 -28 19 0 20 -7 20 -115 0 -70 4 -115 10 -115 6 0 10 43 10 110 0
110 0 110 24 110 27 0 27 5 5 125 -5 28 -12 68 -15 90 -14 95 -20 119 -26 110z"/>
<path d="M3620 4311 c0 -12 8 -21 23 -24 l22 -4 -22 -8 c-19 -6 -23 -15 -23
-46 0 -22 6 -49 13 -60 10 -17 10 -23 0 -26 -7 -3 -13 -14 -13 -25 0 -21 9
-20 77 9 51 21 43 53 -20 72 -57 18 -56 37 1 33 37 -3 42 -1 47 21 4 14 5 36
3 48 -3 21 -9 24 -55 27 -47 3 -53 1 -53 -17z"/>
<path d="M1060 3255 c-7 -33 -18 -85 -26 -115 -20 -88 -28 -157 -16 -145 6 6
13 21 16 35 2 14 13 67 22 118 19 94 27 110 40 70 6 -22 21 -57 74 -173 13
-27 29 -65 37 -83 16 -40 33 -33 33 13 0 18 6 60 14 92 21 87 26 145 13 140
-11 -3 -17 -30 -33 -155 -4 -29 -11 -51 -16 -50 -6 2 -21 31 -35 63 -13 33
-31 76 -40 95 -9 19 -29 62 -44 95 l-27 59 -12 -59z"/>
<path d="M248 3239 c-21 -15 -28 -29 -28 -53 0 -46 26 -66 87 -66 59 0 83 20
83 68 0 61 -87 93 -142 51z"/>
<path d="M1006 2915 c-9 -21 -16 -42 -16 -48 0 -6 -11 -42 -24 -81 -26 -76
-98 -304 -102 -321 -1 -5 -30 -92 -63 -192 -33 -101 -61 -192 -63 -204 -3 -19
5 -24 72 -39 137 -31 225 -49 250 -52 l25 -3 12 135 c19 209 63 774 63 801 0
12 -14 18 -54 23 -30 3 -61 9 -70 12 -11 4 -20 -5 -30 -31z m132 -9 c1 -2 -2
-50 -8 -107 -5 -57 -14 -178 -20 -269 -6 -91 -19 -246 -28 -345 -20 -208 -2
-190 -157 -157 -54 12 -112 22 -127 22 -16 0 -31 6 -34 13 -2 7 18 83 46 168
46 139 138 428 161 504 5 17 21 65 35 108 l27 78 51 -6 c28 -4 52 -8 54 -9z"/>
<path d="M2185 970 c-4 -6 8 -10 29 -10 l36 0 0 -240 0 -240 -29 0 c-17 0 -33
-5 -36 -10 -4 -7 54 -10 177 -8 l183 3 0 73 c0 40 -4 73 -10 75 -5 1 -15 -27
-20 -63 l-11 -65 -102 -3 -102 -3 0 225 c0 123 -3 231 -6 240 -5 13 1 16 30
16 20 0 36 5 36 10 0 6 -35 10 -84 10 -47 0 -88 -4 -91 -10z"/>
<path d="M2860 970 c0 -5 16 -10 35 -10 31 0 35 -3 34 -22 -1 -13 -1 -124 -1
-248 2 -219 3 -226 22 -226 14 0 20 7 20 24 l0 23 37 -26 c129 -87 291 56 239
212 -9 28 -27 59 -39 70 -49 45 -141 56 -195 23 -18 -11 -35 -20 -37 -20 -3 0
-5 47 -5 105 l0 105 -55 0 c-30 0 -55 -4 -55 -10z m290 -205 c44 -32 56 -55
59 -110 3 -73 -15 -121 -57 -150 -55 -38 -104 -32 -159 18 -21 18 -23 30 -23
112 0 82 2 94 23 112 55 50 105 56 157 18z"/>
<path d="M4293 973 c-9 -3 -13 -30 -13 -84 l0 -79 -36 0 c-23 0 -33 -4 -28
-11 3 -6 19 -9 35 -5 l29 6 0 -109 c0 -141 14 -203 48 -219 32 -15 74 -15 105
-1 28 13 62 65 48 74 -6 3 -17 -8 -26 -24 -11 -22 -25 -32 -49 -37 -19 -3 -40
-3 -46 1 -28 17 -40 76 -40 192 l0 118 45 -3 c28 -3 45 0 45 7 0 6 -19 11 -45
11 l-45 0 0 85 c0 47 -3 85 -7 84 -5 0 -14 -3 -20 -6z"/>
<path d="M5581 958 c-24 -13 -51 -35 -59 -50 -14 -23 -14 -32 -2 -68 19 -57
71 -89 209 -131 25 -7 58 -23 75 -34 28 -19 31 -26 34 -80 2 -59 2 -61 -33
-84 -47 -32 -122 -39 -179 -17 -52 20 -76 44 -85 86 -3 17 -10 32 -15 33 -12
3 -13 -137 -1 -141 6 -1 11 6 13 18 4 21 26 27 37 10 12 -19 77 -40 125 -40
50 0 107 19 140 47 28 24 36 94 16 146 -20 52 -57 78 -161 113 -123 41 -165
69 -165 110 0 51 101 95 183 80 56 -11 115 -55 122 -92 12 -65 25 -46 25 36 0
52 -4 79 -10 75 -5 -3 -10 -15 -10 -25 0 -29 -19 -34 -43 -12 -51 48 -146 56
-216 20z"/>
<path d="M6072 972 c-23 -3 -23 -5 -16 -84 l7 -80 -28 4 c-17 2 -30 -2 -33
-10 -3 -9 5 -12 24 -10 l29 3 1 -112 c1 -61 7 -132 13 -156 11 -38 18 -46 51
-57 53 -18 104 -6 130 29 11 16 20 34 20 40 0 20 -15 11 -32 -18 -11 -21 -27
-32 -52 -37 -68 -12 -86 31 -86 202 l0 112 45 -6 c29 -3 45 -1 45 6 0 6 -19
12 -42 14 l-43 3 -5 80 c-5 77 -6 80 -28 77z"/>
<path d="M2628 803 l32 -4 0 -160 0 -159 -30 0 c-16 0 -30 -4 -30 -10 0 -6 35
-10 85 -10 50 0 85 4 85 10 0 6 -13 10 -30 10 l-30 0 0 165 0 165 -57 -2 c-36
-1 -45 -3 -25 -5z"/>
<path d="M3461 794 c-92 -40 -127 -148 -78 -244 38 -77 139 -110 224 -75 46
19 73 43 73 63 0 12 -7 9 -27 -9 -64 -58 -139 -65 -191 -18 -34 30 -62 83 -62
117 0 16 10 18 98 19 169 1 180 2 185 17 10 26 -16 87 -50 117 -28 24 -42 29
-86 29 -29 -1 -67 -7 -86 -16z m154 -29 c17 -16 25 -35 25 -60 l0 -35 -116 0
-116 0 7 27 c4 16 12 34 18 42 45 54 141 68 182 26z"/>
<path d="M3810 800 c0 -5 15 -9 33 -8 l32 3 3 -157 2 -158 -35 0 c-19 0 -35
-4 -35 -10 0 -6 37 -10 90 -10 53 0 90 4 90 10 0 6 -16 10 -35 10 l-35 0 0 95
c0 138 29 190 118 214 43 12 55 6 40 -19 -9 -14 -9 -22 1 -34 18 -21 51 -3 51
27 0 34 -19 47 -67 47 -51 0 -93 -19 -121 -55 l-21 -26 -3 38 -3 38 -52 3
c-33 2 -53 -1 -53 -8z"/>
<path d="M4570 799 c0 -7 9 -9 21 -6 21 6 19 10 84 -138 7 -16 27 -60 44 -98
17 -37 31 -74 31 -83 0 -40 -62 -124 -112 -150 -36 -19 -59 -18 -34 1 18 13
18 15 2 21 -25 10 -44 -12 -30 -34 44 -70 149 33 229 223 20 50 43 104 51 120
7 17 22 53 32 80 16 40 25 51 46 53 56 7 22 22 -49 22 -47 0 -75 -4 -75 -11 0
-6 16 -9 38 -8 45 4 45 1 -4 -114 -20 -45 -42 -97 -50 -116 -14 -33 -15 -34
-28 -15 -14 20 -93 209 -98 234 -2 11 5 14 25 12 15 -2 27 1 27 7 0 7 -28 11
-75 11 -49 0 -75 -4 -75 -11z"/>
</g>
</svg>
